<svg width="948" height="730" viewBox="0 0 948 730" fill="none" xmlns="http://www.w3.org/2000/svg">
<path d="M527.127 591.183C531.453 593.081 542.002 592.834 542.002 592.834C542.002 592.834 539.744 585.926 539.535 585.489C537.221 580.649 529.897 572.659 523.94 573.456C522.956 573.62 522.017 573.988 521.185 574.538C520.352 575.088 519.645 575.807 519.108 576.648C518.571 577.489 518.217 578.434 518.069 579.421C517.921 580.408 517.982 581.415 518.248 582.376C519.159 586.552 523.333 589.608 527.127 591.183Z" fill="#263238"/>
<path d="M530.694 621.796C535.172 622.442 544.601 619.709 545.341 619.5C546.886 624.89 548.788 630.172 551.033 635.309C552.323 638.308 553.727 641.288 555.169 644.268C554.315 642.996 553.537 641.876 553.404 641.743C549.895 637.682 540.712 631.893 535.191 634.247C534.289 634.665 533.485 635.268 532.831 636.016C532.176 636.764 531.686 637.641 531.391 638.591C531.096 639.54 531.003 640.541 531.118 641.529C531.234 642.516 531.555 643.469 532.06 644.325C534.09 648.12 538.985 649.885 542.951 650.455C546.916 651.024 555.055 648.88 557.199 648.272C557.749 649.411 558.299 650.55 558.869 651.688C561.601 657.116 564.352 662.526 566.875 667.916C567.767 669.813 568.583 671.711 569.398 673.609C568.639 672.49 567.975 671.56 567.861 671.427C564.352 667.365 555.169 661.577 549.648 663.93C548.739 664.346 547.929 664.949 547.269 665.699C546.608 666.45 546.114 667.331 545.817 668.285C545.52 669.239 545.427 670.245 545.544 671.238C545.662 672.231 545.987 673.187 546.499 674.046C548.529 677.842 553.423 679.607 557.389 680.176C561.354 680.745 568.772 678.81 571.239 678.107C572.017 680.005 572.813 682.055 573.477 683.991C573.895 685.338 574.388 686.591 574.749 687.958C575.109 689.324 575.489 690.653 575.868 691.962C576.475 694.524 577.139 697.181 577.67 699.706C578.05 701.452 578.391 703.122 578.733 704.811C577.879 702.913 576.096 699.231 575.906 698.946C573.06 694.391 564.864 687.293 559.039 688.774C558.084 689.05 557.196 689.523 556.434 690.163C555.672 690.803 555.053 691.595 554.615 692.489C554.177 693.383 553.931 694.358 553.893 695.352C553.854 696.347 554.024 697.338 554.391 698.263C555.852 702.249 560.405 704.811 564.238 705.969C568.469 707.259 577.803 706.083 578.979 705.969C579.53 708.759 580.061 711.492 580.497 714.073C581.503 719.767 582.262 724.853 582.831 729.256H586.777C586.094 724.796 585.202 719.482 584.007 713.503C583.457 710.657 582.793 707.639 582.11 704.545C584.924 703.436 587.673 702.168 590.344 700.749C593.418 704.09 601.291 707.98 602.316 708.493C601.253 711.131 600.172 713.674 599.128 716.085C596.946 721.095 594.878 725.574 593.057 729.37H597.326C598.901 725.878 600.627 721.911 602.429 717.508C603.53 714.832 604.649 711.947 605.788 708.967C606.907 709.214 616.166 711.093 620.472 710.125C624.381 709.233 629.124 707.013 630.869 703.16C631.314 702.264 631.565 701.283 631.606 700.284C631.647 699.284 631.476 698.286 631.106 697.357C630.735 696.427 630.173 695.586 629.455 694.889C628.738 694.192 627.881 693.653 626.942 693.31C621.25 691.412 612.561 697.884 609.373 702.192C609.184 702.458 607.476 705.437 606.376 707.354C606.831 706.139 607.286 704.963 607.742 703.71C608.652 701.224 609.487 698.719 610.398 696.119C610.796 694.79 611.176 693.461 611.593 692.133C612.011 690.804 612.295 689.362 612.656 687.958C613.434 684.712 614.06 681.372 614.553 677.993C616.735 678.791 624.495 681.486 628.498 681.201C632.501 680.916 637.529 679.455 639.881 675.887C640.452 675.069 640.845 674.14 641.035 673.161C641.224 672.182 641.205 671.173 640.98 670.202C640.754 669.23 640.327 668.316 639.726 667.52C639.125 666.724 638.363 666.064 637.491 665.581C632.14 662.81 622.559 667.897 618.765 671.692C618.518 671.92 616.09 674.957 614.8 676.646C615.122 674.615 615.445 672.584 615.691 670.516C616.431 664.556 617 658.502 617.589 652.448L618.158 646.906C618.936 647.209 628.08 650.607 632.596 650.303C636.58 650.018 641.608 648.538 643.979 644.989C644.551 644.17 644.944 643.239 645.133 642.259C645.323 641.278 645.304 640.268 645.079 639.295C644.854 638.322 644.426 637.407 643.825 636.609C643.224 635.811 642.462 635.149 641.589 634.664C636.239 631.912 626.657 636.999 622.863 640.775C622.578 641.06 619.068 645.425 618.253 646.583C618.689 642.522 619.144 638.46 619.77 634.493C620.586 629.135 621.746 623.836 623.242 618.627C623.603 618.76 633.127 622.423 637.737 622.024C641.741 621.739 646.768 620.278 649.121 616.729C649.692 615.91 650.086 614.98 650.275 613.999C650.464 613.018 650.446 612.008 650.22 611.035C649.995 610.062 649.568 609.147 648.967 608.349C648.366 607.551 647.604 606.889 646.73 606.404C641.38 603.652 631.799 608.72 627.985 612.516C627.701 612.819 623.944 617.507 623.337 618.399C623.337 618.095 623.47 617.773 623.565 617.488C625.208 612.298 627.316 607.267 629.864 602.457C631.23 599.781 632.691 597.294 634.151 594.865C635.859 595.719 643.638 599.534 647.888 599.705C652.138 599.875 657.051 598.945 659.746 595.662C660.404 594.911 660.897 594.031 661.193 593.077C661.489 592.123 661.581 591.117 661.463 590.126C661.345 589.134 661.019 588.178 660.508 587.321C659.996 586.463 659.31 585.723 658.493 585.148C653.485 581.826 643.41 585.831 639.217 589.171C638.99 589.342 636.865 591.468 635.423 592.967C636.106 591.885 636.789 590.785 637.453 589.779C639.976 585.983 642.499 582.661 644.776 579.758C646.085 578.106 647.299 576.645 648.438 575.279C650.544 575.279 659.062 574.994 662.781 573.248C666.5 571.502 670.56 568.351 671.433 564.195C671.674 563.226 671.708 562.218 671.533 561.236C671.358 560.253 670.978 559.318 670.417 558.493C669.857 557.667 669.129 556.969 668.281 556.444C667.432 555.919 666.483 555.579 665.494 555.445C659.518 554.8 652.403 563.037 650.221 567.896C650.032 568.313 647.85 575.298 647.964 575.279H648.077C646.958 576.569 645.744 577.955 644.473 579.511C642.139 582.377 639.521 585.641 636.884 589.399C634.03 593.409 631.407 597.578 629.029 601.887C626.361 606.712 624.12 611.76 622.332 616.976C622.34 617.039 622.34 617.102 622.332 617.165C622.332 615.4 622.332 610.466 622.237 610.105C621.554 604.772 617.095 594.922 611.176 593.783C610.19 593.633 609.183 593.692 608.221 593.955C607.259 594.219 606.363 594.681 605.591 595.312C604.818 595.944 604.187 596.73 603.737 597.621C603.287 598.511 603.029 599.486 602.98 600.483C602.619 604.715 605.693 608.947 608.671 611.624C612.049 614.641 621.402 617.564 622.142 617.792C620.458 623.143 619.139 628.603 618.196 634.133C617.626 637.34 617.133 640.605 616.697 643.869C616.697 642.351 616.697 640.984 616.697 640.794C616.014 635.48 611.555 625.611 605.636 624.491C604.648 624.336 603.638 624.39 602.673 624.651C601.707 624.912 600.807 625.373 600.032 626.005C599.257 626.638 598.624 627.426 598.174 628.32C597.724 629.213 597.467 630.192 597.421 631.191C597.079 635.423 600.153 639.656 603.112 642.332C606.072 645.008 614.079 647.684 616.204 648.367C616.033 649.62 615.862 650.872 615.729 652.163C615.008 658.198 614.306 664.234 613.453 670.117C613.149 672.186 612.77 674.236 612.409 676.266C612.409 674.9 612.409 673.761 612.409 673.59C611.707 668.276 607.248 658.407 601.348 657.287C600.361 657.135 599.352 657.191 598.388 657.453C597.423 657.715 596.525 658.177 595.75 658.809C594.976 659.44 594.343 660.228 593.892 661.12C593.441 662.012 593.182 662.989 593.133 663.987C592.791 668.219 595.846 672.452 598.825 675.128C601.803 677.804 609.013 680.214 611.517 681.03C611.081 683.099 610.645 685.187 610.132 687.179C609.753 688.527 609.468 689.855 609.013 691.184C608.558 692.513 608.159 693.841 607.723 695.132C606.831 697.618 605.826 700.199 604.972 702.59C604.327 704.261 603.682 705.855 603.075 707.449C603.397 705.38 603.947 701.338 603.966 700.996C603.863 696.261 602.557 691.631 600.172 687.54C600.181 687.013 600.143 686.485 600.058 685.965C599.936 684.973 599.606 684.019 599.089 683.164C598.573 682.309 597.883 681.573 597.062 681.003C596.242 680.433 595.311 680.043 594.33 679.858C593.349 679.673 592.34 679.698 591.368 679.929C585.563 681.486 581.882 691.677 581.598 697.011C581.598 697.314 581.787 700.806 581.958 702.951C581.655 701.679 581.389 700.465 581.066 699.155C580.459 696.593 579.776 694.05 579.055 691.298C578.651 690.033 578.252 688.704 577.86 687.312C577.481 685.984 576.911 684.617 576.456 683.251C575.299 680.119 573.99 676.988 572.662 673.856C574.919 673.325 582.869 671.294 586.056 668.846C589.244 666.397 592.621 662.393 592.583 658.16C592.61 657.162 592.427 656.168 592.045 655.245C591.663 654.322 591.091 653.489 590.366 652.802C589.641 652.114 588.78 651.587 587.838 651.255C586.896 650.922 585.894 650.792 584.899 650.872C578.923 651.518 573.743 661.045 572.662 666.302C572.662 666.625 572.244 670.497 572.073 672.622C571.22 670.725 570.385 668.827 569.455 666.929C566.78 661.558 563.915 656.186 561.069 650.834C560.197 649.183 559.362 647.532 558.508 645.9C559.305 645.71 568.81 643.508 572.396 640.756C575.564 638.308 578.941 634.323 578.923 630.071C578.948 629.081 578.768 628.096 578.391 627.18C578.015 626.264 577.452 625.436 576.737 624.75C576.023 624.064 575.173 623.535 574.243 623.196C573.312 622.858 572.321 622.717 571.333 622.783C565.357 623.429 560.159 632.956 559.077 638.213C559.077 638.612 558.489 644.173 558.432 645.596C556.535 641.971 554.638 638.327 553.044 634.683C550.758 629.757 548.799 624.685 547.182 619.5C547.542 619.5 557.484 617.165 561.145 614.338C564.333 611.908 567.71 607.904 567.672 603.671C567.698 602.681 567.517 601.696 567.141 600.78C566.764 599.864 566.201 599.036 565.487 598.35C564.772 597.664 563.923 597.135 562.992 596.796C562.062 596.458 561.071 596.317 560.083 596.383C554.106 597.029 548.927 606.556 547.846 611.813C547.846 612.231 547.219 618.209 547.201 619.291C547.201 618.987 546.973 618.684 546.878 618.399C545.399 613.159 544.383 607.799 543.842 602.381C543.501 599.401 543.349 596.516 543.273 593.726C545.17 593.498 553.803 592.341 557.389 590.177C560.975 588.014 564.617 584.483 564.978 580.27C565.117 579.281 565.046 578.273 564.769 577.313C564.492 576.353 564.016 575.462 563.371 574.699C562.726 573.936 561.928 573.317 561.028 572.884C560.128 572.451 559.146 572.213 558.148 572.185C552.133 572.185 545.929 581.067 544.279 586.173C544.279 586.457 543.596 589.38 543.178 591.525C543.178 590.253 543.178 588.962 543.178 587.729C543.178 583.174 543.463 579.017 543.747 575.317C543.937 573.229 544.146 571.331 544.355 569.623C546.081 568.427 553.044 563.53 555.188 560.019C557.332 556.508 558.982 551.65 557.408 547.702C557.075 546.759 556.547 545.898 555.859 545.173C555.171 544.449 554.337 543.878 553.413 543.498C552.489 543.119 551.495 542.938 550.496 542.969C549.498 543 548.517 543.242 547.618 543.678C542.287 546.43 540.883 557.191 541.755 562.487C541.755 562.942 543.861 569.964 543.937 569.907H544.051C543.823 571.597 543.577 573.419 543.368 575.411C543.008 579.112 542.628 583.269 542.514 587.843C542.348 592.761 542.469 597.685 542.875 602.59C543.293 608.089 544.207 613.539 545.607 618.874V619.044C544.658 617.564 541.812 613.502 541.623 613.218C538.113 609.156 528.93 603.368 523.409 605.721C522.5 606.137 521.69 606.74 521.03 607.49C520.369 608.241 519.875 609.122 519.578 610.076C519.281 611.03 519.188 612.036 519.305 613.029C519.423 614.022 519.748 614.978 520.26 615.837C521.834 619.386 526.729 621.227 530.694 621.796Z" fill="#263238"/>
<path d="M633.791 593.536C633.791 593.536 635.688 586.533 635.688 586.059C636.428 580.744 634.739 570.04 629.313 567.421C628.403 567.009 627.416 566.795 626.417 566.791C625.418 566.787 624.429 566.995 623.516 567.4C622.602 567.805 621.785 568.398 621.116 569.141C620.448 569.884 619.944 570.759 619.637 571.71C618.195 575.696 620.036 580.593 622.199 583.952C624.855 587.919 633.791 593.536 633.791 593.536Z" fill="#263238"/>
<path d="M842.995 175.445C886.399 165.388 913.436 122.038 903.384 78.6182C893.331 35.1985 849.995 8.1521 806.591 18.2082C763.186 28.2644 736.149 71.6151 746.202 115.035C756.255 158.454 799.59 185.501 842.995 175.445Z" stroke="#263238" stroke-miterlimit="10"/>
<path d="M841.656 169.855C881.892 160.518 906.944 120.319 897.61 80.0681C888.277 39.8173 848.092 14.7568 807.855 24.0938C767.618 33.4308 742.567 73.6297 751.9 113.88C761.234 154.131 801.419 179.192 841.656 169.855Z" stroke="#263238" stroke-miterlimit="10"/>
<path d="M824.193 101.389C826.509 101.389 828.386 99.5109 828.386 97.1944C828.386 94.8779 826.509 93 824.193 93C821.877 93 820 94.8779 820 97.1944C820 99.5109 821.877 101.389 824.193 101.389Z" fill="#263238"/>
<path d="M786.805 96.8151H824.636V50.582" stroke="#263238" stroke-linecap="round" stroke-linejoin="round"/>
<path d="M20.163 705.95C20.163 705.95 35.341 628.989 35.341 622.897C34.8026 604.197 32.7724 585.57 29.2697 567.193C24.2041 539.844 9.0071 471.994 4.96595 460.91C0.924805 449.827 16.1028 429.519 20.144 406.213C24.1851 382.906 33.3109 360.663 45.4723 346.466C57.6337 332.27 101.157 300.917 101.157 300.917H123.43C123.43 300.917 115.329 434.605 126.466 454.875C137.603 475.145 157.847 517.658 159.877 535.897C161.907 554.136 149.745 584.502 151.775 601.735C153.805 618.968 136.597 647.285 132.537 659.47C128.477 671.654 130.602 710.011 130.602 710.011" fill="white"/>
<path d="M20.163 705.95C20.163 705.95 35.341 628.989 35.341 622.897C34.8026 604.197 32.7724 585.57 29.2697 567.193C24.2041 539.844 9.0071 471.994 4.96595 460.91C0.924805 449.827 16.1028 429.519 20.144 406.213C24.1851 382.906 33.3109 360.663 45.4723 346.466C57.6337 332.27 101.157 300.917 101.157 300.917H123.43C123.43 300.917 115.329 434.605 126.466 454.875C137.603 475.145 157.847 517.658 159.877 535.897C161.907 554.136 149.745 584.502 151.775 601.735C153.805 618.968 136.597 647.285 132.537 659.47C128.477 671.654 130.602 710.011 130.602 710.011" stroke="#263238" stroke-linecap="round" stroke-linejoin="round"/>
<path d="M99.1457 338.305L82.9432 357.132C82.9432 357.132 78.902 378.807 76.872 388.941C75.5749 395.239 73.5371 401.362 70.8008 407.18C70.8008 407.18 77.8775 423.37 81.9376 429.462C84.4328 433.257 86.4706 437.334 88.0088 441.608L99.1457 448.707V338.305Z" fill="#263238" stroke="#263238" stroke-linecap="round" stroke-linejoin="round"/>
<path d="M43.2139 409.724C48.6428 409.003 54.1109 408.616 59.5872 408.566" stroke="#263238" stroke-linecap="round" stroke-linejoin="round"/>
<path d="M71.2744 348.934C71.2744 348.934 82.9425 352.445 82.9425 357.133" stroke="#263238" stroke-linecap="round" stroke-linejoin="round"/>
<path d="M1 719.083C1 719.083 6.06566 671.009 6.06566 665.942V650.759C6.06566 645.691 11.1313 641.895 11.1313 641.895C11.1313 641.895 60.4599 631.779 109.788 648.234C159.117 664.689 147.733 691.241 147.733 691.241L145.191 729.199" fill="white"/>
<path d="M1 719.083C1 719.083 6.06566 671.009 6.06566 665.942V650.759C6.06566 645.691 11.1313 641.895 11.1313 641.895C11.1313 641.895 60.4599 631.779 109.788 648.234C159.117 664.689 147.733 691.241 147.733 691.241L145.191 729.199" stroke="#263238" stroke-linecap="round" stroke-linejoin="round"/>
<path d="M701.598 149.918H112.274C102.225 149.918 94.0791 158.067 94.0791 168.119V518.626C94.0791 528.678 102.225 536.827 112.274 536.827H701.598C711.647 536.827 719.793 528.678 719.793 518.626V168.119C719.793 158.067 711.647 149.918 701.598 149.918Z" fill="#263238" stroke="#263238" stroke-linecap="round" stroke-linejoin="round"/>
<path d="M679.723 171.194H134.13C124.082 171.194 115.936 179.343 115.936 189.395V497.35C115.936 507.402 124.082 515.551 134.13 515.551H679.723C689.771 515.551 697.918 507.402 697.918 497.35V189.395C697.918 179.343 689.771 171.194 679.723 171.194Z" fill="white" stroke="#263238" stroke-linecap="round" stroke-linejoin="round"/>
<path d="M654.927 185.144H499.561V284.614H654.927V185.144Z" fill="white" stroke="#263238" stroke-linecap="round" stroke-linejoin="round"/>
<path d="M654.927 273.53H499.561V284.614H654.927V273.53Z" fill="#263238" stroke="#263238" stroke-linecap="round" stroke-linejoin="round"/>
<path d="M654.927 277.458H499.561V280.685H654.927V277.458Z" fill="white" stroke="#263238" stroke-linecap="round" stroke-linejoin="round"/>
<path d="M576.49 257.179C589.082 256.117 598.429 245.044 597.367 232.448C596.305 219.851 585.237 210.501 572.645 211.563C560.053 212.625 550.705 223.698 551.767 236.294C552.829 248.891 563.898 258.241 576.49 257.179Z" fill="#604FB2"/>
<path d="M587.802 234.888L567.899 223.406V246.389L587.802 234.888Z" fill="white"/>
<path d="M654.927 295.355H499.561V394.825H654.927V295.355Z" fill="white" stroke="#263238" stroke-linecap="round" stroke-linejoin="round"/>
<path d="M654.927 383.741H499.561V394.825H654.927V383.741Z" fill="#263238" stroke="#263238" stroke-linecap="round" stroke-linejoin="round"/>
<path d="M654.927 387.67H499.561V390.896H654.927V387.67Z" fill="white" stroke="#263238" stroke-linecap="round" stroke-linejoin="round"/>
<path d="M576.487 367.38C589.079 366.318 598.426 355.246 597.364 342.649C596.302 330.053 585.234 320.703 572.642 321.765C560.05 322.827 550.703 333.899 551.764 346.496C552.826 359.092 563.895 368.443 576.487 367.38Z" fill="#604FB2"/>
<path d="M587.802 345.1L567.899 333.599V356.601L587.802 345.1Z" fill="white"/>
<path d="M654.927 405.567H499.561V505.037H654.927V405.567Z" fill="white" stroke="#263238" stroke-linecap="round" stroke-linejoin="round"/>
<path d="M654.927 493.953H499.561V505.037H654.927V493.953Z" fill="#263238" stroke="#263238" stroke-linecap="round" stroke-linejoin="round"/>
<path d="M654.927 497.863H499.561V501.089H654.927V497.863Z" fill="white" stroke="#263238" stroke-linecap="round" stroke-linejoin="round"/>
<path d="M597.241 457.681C598.827 445.14 589.95 433.687 577.413 432.101C564.876 430.514 553.427 439.395 551.841 451.936C550.255 464.477 559.133 475.93 571.67 477.516C584.207 479.103 595.655 470.222 597.241 457.681Z" fill="#604FB2"/>
<path d="M587.802 455.311L567.899 443.81V466.794L587.802 455.311Z" fill="white"/>
<path d="M446.608 218.3H182.017C175.939 218.3 171.013 223.229 171.013 229.308V498.679C171.013 504.758 175.939 509.687 182.017 509.687H446.608C452.685 509.687 457.612 504.758 457.612 498.679V229.308C457.612 223.229 452.685 218.3 446.608 218.3Z" fill="#FF7666"/>
<path d="M66.7783 481.218C66.7783 481.218 85.0679 441.608 86.9651 426.425C88.8624 411.242 85.0678 375.77 90.0386 361.536C95.0094 347.301 92.0497 329.119 104.211 322.04C116.373 314.961 132.556 316.973 135.592 345.327C138.627 373.682 135.592 418.264 136.597 433.447C137.603 448.631 163.937 470.931 164.961 503.328C165.986 535.726 154.83 569.167 151.794 583.344C148.759 597.522 136.616 630.944 136.616 630.944" fill="white"/>
<path d="M66.7783 481.218C66.7783 481.218 85.0679 441.608 86.9651 426.425C88.8624 411.242 85.0678 375.77 90.0386 361.536C95.0094 347.301 92.0497 329.119 104.211 322.04C116.373 314.961 132.556 316.973 135.592 345.327C138.627 373.682 135.592 418.264 136.597 433.447C137.603 448.631 163.937 470.931 164.961 503.328C165.986 535.726 154.83 569.167 151.794 583.344C148.759 597.522 136.616 630.944 136.616 630.944" stroke="#263238" stroke-linecap="round" stroke-linejoin="round"/>
<path d="M95.0476 354.855C101.039 353.406 107.276 353.289 113.318 354.513C118.792 355.551 124.201 356.9 129.521 358.556C130.105 351.818 130.105 345.043 129.521 338.305C129.521 338.305 130.868 326.728 123.829 322.059C116.79 317.39 102.788 318.548 98.1211 329.062C93.4539 339.577 95.0476 354.855 95.0476 354.855Z" stroke="#263238" stroke-linecap="round" stroke-linejoin="round"/>
<path d="M120.337 373.493C120.337 373.493 96.9822 366.471 91.1387 375.827" stroke="#263238" stroke-linecap="round" stroke-linejoin="round"/>
<path d="M96.9824 379.338C96.9824 379.338 103.983 381.672 119.18 380.496" stroke="#263238" stroke-linecap="round" stroke-linejoin="round"/>
<path d="M706.626 208.659C706.626 208.659 680.311 216.763 682.323 223.842C684.334 230.922 732.96 291.712 741.137 289.681C749.315 287.65 758.364 261.326 758.364 243.087C758.364 224.848 706.626 208.659 706.626 208.659Z" fill="#263238" stroke="#263238" stroke-linecap="round" stroke-linejoin="round"/>
<path d="M921.756 387.575L896.978 357.55C896.978 357.55 864.573 281.634 855.466 266.45C846.359 251.267 826.097 207.615 819.02 205.717C811.943 203.819 801.793 202.681 798.757 200.65C795.722 198.619 783.579 194.577 767.377 193.571C751.174 192.565 717.764 185.372 703.572 181.234C689.381 177.097 688.394 181.234 671.167 187.308C653.94 193.381 602.316 211.62 598.275 214.656C594.233 217.693 599.28 226.822 612.447 231.871C625.614 236.919 631.685 232.895 646.863 230.865C662.041 228.834 685.358 224.886 688.394 224.886C691.43 224.886 713.722 227.923 717.763 229.954C721.805 231.984 731.936 248.174 731.936 256.278C731.797 262.066 731.117 267.829 729.906 273.492L729.507 343.828C729.507 343.828 761.552 380.003 783.75 392.339C805.948 404.675 816.629 405.51 816.629 405.51L851.159 437.566" fill="white"/>
<path d="M921.756 387.575L896.978 357.55C896.978 357.55 864.573 281.634 855.466 266.45C846.359 251.267 826.097 207.615 819.02 205.717C811.943 203.819 801.793 202.681 798.757 200.65C795.722 198.619 783.579 194.577 767.377 193.571C751.174 192.565 717.764 185.372 703.572 181.234C689.381 177.097 688.394 181.234 671.167 187.308C653.94 193.381 602.316 211.62 598.275 214.656C594.233 217.693 599.28 226.822 612.447 231.871C625.614 236.919 631.685 232.895 646.863 230.865C662.041 228.834 685.358 224.886 688.394 224.886C691.43 224.886 713.722 227.923 717.763 229.954C721.805 231.984 731.936 248.174 731.936 256.278C731.797 262.066 731.117 267.829 729.906 273.492L729.507 343.828C729.507 343.828 761.552 380.003 783.75 392.339C805.948 404.675 816.629 405.51 816.629 405.51L851.159 437.566" stroke="#263238" stroke-linecap="round" stroke-linejoin="round"/>
<path d="M798.757 200.555C805.333 207.429 810.8 215.285 814.959 223.842Z" fill="white"/>
<path d="M798.757 200.555C805.333 207.429 810.8 215.285 814.959 223.842" stroke="#263238" stroke-linecap="round" stroke-linejoin="round"/>
<path d="M893.98 502.095L816.99 415.285C816.99 415.285 781.549 400.101 758.27 384.918C734.991 369.735 706.627 321.11 699.455 309.97C692.284 298.829 677.181 276.528 665.039 268.443C652.897 260.358 630.699 235.002 625.633 224.886C620.567 214.77 629.674 201.58 640.811 200.574C651.948 199.568 698.525 221.85 706.627 233.996C714.728 246.143 738.007 271.48 738.007 271.48" fill="white"/>
<path d="M893.98 502.095L816.99 415.285C816.99 415.285 781.549 400.101 758.27 384.918C734.991 369.735 706.627 321.11 699.455 309.97C692.284 298.829 677.181 276.528 665.039 268.443C652.897 260.358 630.699 235.002 625.633 224.886C620.567 214.77 629.674 201.58 640.811 200.574C651.948 199.568 698.525 221.85 706.627 233.996C714.728 246.143 738.007 271.48 738.007 271.48" stroke="#263238" stroke-linecap="round" stroke-linejoin="round"/>
<path d="M681.317 236.008C681.317 236.008 669.175 248.154 668.15 254.228" stroke="#263238" stroke-linecap="round" stroke-linejoin="round"/>
<path d="M690.424 237.014C690.424 237.014 681.317 251.191 675.246 256.258" stroke="#263238" stroke-linecap="round" stroke-linejoin="round"/>
<path d="M671.186 216.763C658.038 225.873 648.912 243.087 648.912 243.087C648.912 243.087 627.265 235.211 625.633 224.867C624.001 214.523 627.265 204.142 640.811 200.555C654.357 196.968 671.186 216.763 671.186 216.763Z" stroke="#263238" stroke-linecap="round" stroke-linejoin="round"/>
<path d="M920.542 562.828C916.747 556.489 831.997 457.171 828.203 444.512C824.408 431.853 839.586 402.758 863.624 376.187C876.317 362.162 907.944 339.292 925.665 357.93C932.969 365.635 939.173 375.011 947.104 382.602" fill="white"/>
<path d="M920.542 562.828C916.747 556.489 831.997 457.171 828.203 444.512C824.408 431.853 839.586 402.758 863.624 376.187C876.317 362.162 907.944 339.292 925.665 357.93C932.969 365.635 939.173 375.011 947.104 382.602" stroke="#263238" stroke-linecap="round" stroke-linejoin="round"/>
<path d="M386.029 515.115L389.482 460.986C390.539 465.341 391.902 469.616 393.561 473.778C395.307 477.271 430.766 460.986 430.766 460.986C430.766 460.986 421.47 398.166 415.588 375.58C409.707 352.995 407.999 323.236 402.801 321.49C397.602 319.744 331.881 288.922 330.136 288.922C328.39 288.922 292.931 292.414 292.931 292.414L235.368 327.317L243.982 515.21L386.029 515.115Z" fill="white" stroke="#263238" stroke-linecap="round" stroke-linejoin="round"/>
<path d="M340.419 369.716C340.419 371.614 340.248 373.512 340.097 375.315" stroke="#263238" stroke-linecap="round" stroke-linejoin="round"/>
<path d="M336.928 319.63C338.96 333.463 340.158 347.407 340.514 361.384" stroke="#263238" stroke-linecap="round" stroke-linejoin="round"/>
<path d="M382.917 364.914L383.088 355.709" stroke="#263238" stroke-linecap="round" stroke-linejoin="round"/>
<path d="M381.19 457.551L382.803 371.766" stroke="#263238" stroke-linecap="round" stroke-linejoin="round"/>
<path d="M437.9 515.115L433.688 479.7L393.846 487.291L407.468 515.115H437.9Z" fill="white" stroke="#263238" stroke-linecap="round" stroke-linejoin="round"/>
<path d="M387.527 470.836C394.501 467.693 401.264 464.098 407.771 460.075C419.154 453.129 429.893 451.231 433.061 456.925C436.23 462.618 443.173 478.428 440.65 480.952C438.127 483.476 400.808 495.509 397.013 495.509C393.219 495.509 386.275 482.755 386.275 482.755C385.582 478.743 386.016 474.617 387.527 470.836V470.836Z" fill="white" stroke="#263238" stroke-linecap="round" stroke-linejoin="round"/>
<path d="M299.951 275.447C299.951 275.447 293.386 280.723 291.242 284.177C289.103 288.205 287.533 292.51 286.575 296.969L311.581 331.871L327.29 307.445L333.096 303.953L358.102 320.807C358.102 320.807 349.374 290.573 340.078 281.273C330.781 271.973 305.149 273.131 299.951 275.447Z" fill="white" stroke="#263238" stroke-linecap="round" stroke-linejoin="round"/>
<path d="M330.743 154.398C330.743 154.398 343.929 164.931 345.238 170.872C346.547 176.812 342.923 189.851 342.923 189.851L325.487 155.783L330.743 154.398Z" fill="#263238" stroke="#263238" stroke-linecap="round" stroke-linejoin="round"/>
<path d="M326.702 149.254C326.702 149.254 350.531 201.01 354.022 218.452C357.513 235.894 355.768 252.197 349.374 264.401C342.98 276.604 335.998 274.877 335.998 274.877V314.411C335.998 314.411 305.149 289.984 303.441 287.081C301.734 284.177 298.793 278.939 298.793 278.939C298.793 278.939 295.302 253.355 284.279 245.763C284.279 245.763 269.746 248.098 266.255 234.717C262.764 221.337 265.667 216.687 274.983 215.529C274.983 215.529 267.394 196.342 265.667 183.55C263.941 170.758 285.437 166.677 298.224 158.535C306.932 153.413 316.649 150.247 326.702 149.254V149.254Z" fill="white" stroke="#263238" stroke-linecap="round" stroke-linejoin="round"/>
<path d="M335.998 274.877L324.767 270.512L335.334 290.079L335.998 274.877Z" fill="#263238" stroke="#263238" stroke-linecap="round" stroke-linejoin="round"/>
<path d="M273.787 219.61C273.787 219.61 266.198 216.706 258.097 206.325C249.995 195.943 247.624 187.706 258.685 170.264C269.746 152.823 309.266 136.444 320.327 138.19C331.387 139.936 338.35 153.904 324.975 162.616C315.807 168.251 305.795 172.377 295.321 174.838C295.321 174.838 301.714 169.6 294.733 168.442C287.751 167.285 273.863 174.25 274.982 180.077C276.102 185.903 284.867 184.138 284.279 193.362C283.691 202.586 275.551 212.569 278.454 216.137C281.357 219.705 288.339 222.533 282.533 224.279C276.728 226.025 273.787 219.61 273.787 219.61Z" fill="#263238" stroke="#263238" stroke-linecap="round" stroke-linejoin="round"/>
<path d="M314.483 228.929L305.756 235.913" stroke="#263238" stroke-linecap="round" stroke-linejoin="round"/>
<path d="M310.423 233.579C310.423 233.579 321.465 244.036 340.646 235.325" stroke="#263238" stroke-linecap="round" stroke-linejoin="round"/>
<path d="M314.483 237.071C315.807 239.524 317.631 241.672 319.837 243.375C322.043 245.079 324.582 246.3 327.29 246.959C336.586 249.274 331.938 238.817 331.938 238.817C331.938 238.817 319.151 238.817 314.483 237.071Z" fill="#263238" stroke="#263238" stroke-linecap="round" stroke-linejoin="round"/>
<path d="M304.485 202.111C305.395 204.863 305.13 207.425 303.915 207.805C302.701 208.184 300.975 206.305 300.121 203.553C299.267 200.802 299.476 198.258 300.69 197.86C301.904 197.461 303.593 199.283 304.485 202.111Z" fill="#263238"/>
<path d="M334.727 193.305C335.618 196.038 335.372 198.6 334.158 198.999C332.943 199.397 331.217 197.499 330.363 194.766C329.509 192.033 329.718 189.452 330.932 189.073C332.146 188.693 333.816 190.553 334.727 193.305Z" fill="#263238"/>
<path d="M312.478 191.935L288.723 199.689C286.692 200.352 285.583 202.536 286.246 204.568L289.645 214.989C290.308 217.021 292.491 218.13 294.522 217.467L318.277 209.713C320.308 209.05 321.417 206.866 320.754 204.834L317.355 194.413C316.692 192.381 314.509 191.272 312.478 191.935Z" stroke="#263238" stroke-width="0.9993" stroke-linecap="round" stroke-linejoin="round"/>
<path d="M317.842 189.148L326.304 186.339" stroke="#263238" stroke-linecap="round" stroke-linejoin="round"/>
<path d="M287.277 201.352L272.118 216.346" stroke="#263238" stroke-linecap="round" stroke-linejoin="round"/>
<path d="M355.18 177.533L343.91 187.042" stroke="#263238" stroke-linecap="round" stroke-linejoin="round"/>
<path d="M351.851 176.939L328.11 184.793C326.081 185.464 324.98 187.655 325.651 189.685L329.094 200.1C329.765 202.13 331.955 203.231 333.984 202.56L357.725 194.706C359.755 194.034 360.856 191.844 360.185 189.814L356.741 179.399C356.07 177.369 353.881 176.267 351.851 176.939Z" stroke="#263238" stroke-linecap="round" stroke-linejoin="round"/>
<path d="M291.868 192.28C291.868 192.28 298.85 183.568 309.323 184.688" stroke="#263238" stroke-width="2" stroke-linecap="round" stroke-linejoin="round"/>
<path d="M323.799 180.076C323.799 180.076 328.447 175.427 337.08 177.742" stroke="#263238" stroke-width="2" stroke-linecap="round" stroke-linejoin="round"/>
<path d="M325.544 191.123C325.544 191.123 342.98 224.848 341.234 227.183C339.489 229.517 327.953 227.183 327.953 227.183" fill="white"/>
<path d="M325.544 191.123C325.544 191.123 342.98 224.848 341.234 227.183C339.489 229.517 327.953 227.183 327.953 227.183" stroke="#263238" stroke-linecap="round" stroke-linejoin="round"/>
<path d="M242.407 323.729C242.407 323.729 232.522 323.73 229.601 332.441C226.679 341.152 199.377 440.622 202.28 443.526C205.183 446.429 241.819 448.764 245.917 447.606C250.015 446.448 267.432 379.547 267.432 379.547" fill="white"/>
<path d="M242.407 323.729C242.407 323.729 232.522 323.73 229.601 332.441C226.679 341.152 199.377 440.622 202.28 443.526C205.183 446.429 241.819 448.764 245.917 447.606C250.015 446.448 267.432 379.547 267.432 379.547" stroke="#263238" stroke-linecap="round" stroke-linejoin="round"/>
<path d="M256.94 445.272C256.94 445.272 259.255 433.637 249.351 428.988C239.447 424.338 223.188 424.926 213.303 432.48C203.419 440.033 201.673 438.287 199.358 452.844C197.044 467.401 206.948 476.682 215.049 478.428C223.15 480.174 230.227 481.92 240.055 472.032C249.882 462.144 256.94 445.272 256.94 445.272Z" fill="white" stroke="#263238" stroke-linecap="round" stroke-linejoin="round"/>
<path d="M318.183 384.026C318.183 384.026 314.104 473.019 298.982 506.175C298.982 506.175 313.534 510.825 337.364 508.491C361.193 506.156 383.296 493.308 383.296 493.308C383.296 493.308 391.436 444.455 395.496 420.618C399.556 396.78 401.908 383.457 401.908 383.457C401.908 383.457 396.691 387.518 367.037 389.264C337.383 391.01 318.183 384.026 318.183 384.026Z" fill="white" stroke="#263238" stroke-linecap="round" stroke-linejoin="round"/>
<path d="M280.181 456.906C280.181 456.906 246.466 436.029 241.818 436.029C237.17 436.029 223.206 440.679 217.401 454.059C211.595 467.439 212.183 474.348 219.772 476.682C227.361 479.016 276.177 483.666 281.983 483.666C287.789 483.666 301.752 486.57 309.892 486.57C318.031 486.57 339.546 484.236 342.448 479.586C345.351 474.936 321.579 476.682 319.776 476.094C317.974 475.505 341.557 470.988 344.782 470.286C348.007 469.584 352.371 465.048 345.939 463.302C345.939 463.302 356.981 458.063 350.018 453.414L317.538 447.72L327.593 445.613C327.593 445.613 350.36 451.686 350.018 444.721C349.886 441.798 331.406 435.991 325.601 435.991C319.795 435.991 288.965 456.868 288.965 456.868L280.181 456.906Z" fill="white" stroke="#263238" stroke-linecap="round" stroke-linejoin="round"/>
<path d="M345.883 463.321L316.229 460.986" stroke="#263238" stroke-linecap="round" stroke-linejoin="round"/>
<path d="M382.272 149.919C389.654 158.968 399.561 165.614 410.731 169.012L387.85 209.342L430.292 172.181H431.544C452.053 172.181 470.134 163.318 480.778 149.881L382.272 149.919Z" fill="#263238" stroke="#263238" stroke-linecap="round" stroke-linejoin="round"/>
<path d="M430.671 68.4224C397.944 68.4224 371.42 90.9506 371.42 118.717C371.42 140.277 387.395 158.573 409.858 165.804L386.977 206.135L429.419 168.993H430.671C463.399 168.993 489.922 146.483 489.922 118.698C489.922 90.9126 463.399 68.4224 430.671 68.4224Z" fill="#FF7666"/>
<path d="M409.725 119.818C409.725 118.515 409.339 117.242 408.616 116.159C407.893 115.076 406.864 114.232 405.661 113.733C404.458 113.235 403.135 113.104 401.858 113.358C400.581 113.613 399.408 114.24 398.487 115.161C397.566 116.082 396.939 117.255 396.685 118.533C396.431 119.81 396.561 121.135 397.06 122.338C397.558 123.541 398.402 124.57 399.484 125.294C400.567 126.017 401.84 126.403 403.142 126.403C404.888 126.403 406.563 125.71 407.797 124.475C409.032 123.239 409.725 121.564 409.725 119.818Z" fill="#263238"/>
<path d="M439.038 119.818C439.038 118.515 438.652 117.242 437.928 116.159C437.205 115.076 436.177 114.232 434.974 113.733C433.771 113.235 432.447 113.104 431.17 113.358C429.893 113.613 428.72 114.24 427.799 115.161C426.879 116.082 426.252 117.255 425.998 118.533C425.744 119.81 425.874 121.135 426.372 122.338C426.87 123.541 427.714 124.57 428.797 125.294C429.88 126.017 431.152 126.403 432.455 126.403C434.201 126.403 435.875 125.71 437.11 124.475C438.344 123.239 439.038 121.564 439.038 119.818V119.818Z" fill="#263238"/>
<path d="M461.786 126.403C465.422 126.403 468.369 123.455 468.369 119.818C468.369 116.18 465.422 113.232 461.786 113.232C458.15 113.232 455.202 116.18 455.202 119.818C455.202 123.455 458.15 126.403 461.786 126.403Z" fill="#263238"/>
<path d="M326.702 639.181C333.01 639.181 338.123 634.066 338.123 627.755C338.123 621.445 333.01 616.33 326.702 616.33C320.394 616.33 315.28 621.445 315.28 627.755C315.28 634.066 320.394 639.181 326.702 639.181Z" fill="#604FB2"/>
<path d="M326.701 598.889C321.108 598.891 315.636 600.519 310.95 603.575C306.265 606.631 302.568 610.984 300.311 616.103L307.9 622.935C308.976 618.573 311.536 614.721 315.14 612.04C318.744 609.359 323.168 608.015 327.654 608.24C332.14 608.464 336.408 610.243 339.727 613.27C343.046 616.297 345.209 620.385 345.845 624.833L353.604 617.374C351.507 611.938 347.815 607.264 343.014 603.965C338.213 600.665 332.526 598.896 326.701 598.889V598.889Z" fill="#604FB2"/>
<path d="M295.112 611.472C298.133 605.584 302.738 600.657 308.408 597.248C314.078 593.839 320.587 592.083 327.202 592.178C333.817 592.272 340.274 594.214 345.844 597.784C351.414 601.355 355.876 606.411 358.727 612.383L365.861 605.512C361.962 598.625 356.318 592.888 349.497 588.879C342.675 584.87 334.918 582.731 327.007 582.677C319.096 582.623 311.31 584.657 304.435 588.572C297.559 592.488 291.837 598.148 287.846 604.981L295.112 611.472Z" fill="#604FB2"/>
<path fill-rule="evenodd" clip-rule="evenodd" d="M633.373 68.005V115.206C633.373 117.592 632.426 119.88 630.739 121.567C629.053 123.254 626.766 124.202 624.38 124.202H566.97C564.584 124.202 562.297 123.254 560.611 121.567C558.924 119.88 557.977 117.592 557.977 115.206V57.8701C557.977 55.4842 558.924 53.196 560.611 51.5089C562.297 49.8218 564.584 48.874 566.97 48.874H618.195" fill="#604FB2"/>
<path fill-rule="evenodd" clip-rule="evenodd" d="M621.686 69.8267H570.461C569.905 69.8266 569.372 70.046 568.978 70.437C568.584 70.8279 568.359 71.3589 568.354 71.9143V101.389C568.354 101.948 568.576 102.483 568.971 102.879C569.366 103.274 569.902 103.496 570.461 103.496H621.686C622.245 103.496 622.78 103.274 623.175 102.879C623.57 102.483 623.792 101.948 623.792 101.389V71.9143C623.787 71.3589 623.563 70.8279 623.169 70.437C622.774 70.046 622.242 69.8266 621.686 69.8267V69.8267ZM622.369 76.2036L606.034 86.3385L620.605 97.0996C621.007 97.4016 621.274 97.8513 621.345 98.3496C621.416 98.8479 621.286 99.354 620.984 99.7567C620.808 99.9924 620.578 100.184 620.315 100.316C620.052 100.447 619.761 100.516 619.467 100.516C619.065 100.517 618.673 100.391 618.347 100.155L602.562 88.4831L596.699 92.0891L589.85 88.2933L573.781 100.174C573.455 100.41 573.063 100.536 572.661 100.535C572.265 100.531 571.879 100.403 571.559 100.168C571.239 99.934 571.001 99.6052 570.877 99.2282C570.754 98.8512 570.751 98.4449 570.871 98.0665C570.99 97.6881 571.225 97.3566 571.542 97.1186L586.208 86.2815L569.55 77.0197C569.333 76.8951 569.143 76.729 568.99 76.5309C568.838 76.3328 568.726 76.1065 568.66 75.8651C568.595 75.6237 568.578 75.3717 568.61 75.1237C568.643 74.8757 568.723 74.6364 568.848 74.4196C568.972 74.2028 569.138 74.0126 569.336 73.86C569.535 73.7073 569.761 73.5952 570.002 73.53C570.243 73.4648 570.495 73.4478 570.743 73.4799C570.991 73.5121 571.23 73.5928 571.447 73.7174L596.643 87.7239L620.377 73.0531C620.589 72.9092 620.828 72.8096 621.079 72.7605C621.33 72.7113 621.589 72.7136 621.839 72.7671C622.09 72.8206 622.327 72.9243 622.536 73.0719C622.746 73.2194 622.923 73.4079 623.057 73.6258C623.192 73.8437 623.281 74.0867 623.319 74.34C623.357 74.5933 623.344 74.8517 623.28 75.0996C623.215 75.3476 623.102 75.5799 622.945 75.7827C622.789 75.9855 622.593 76.1545 622.369 76.2795V76.2036Z" fill="white"/>
<path fill-rule="evenodd" clip-rule="evenodd" d="M643 55.5C643 52.6322 642.15 49.8288 640.556 47.4442C638.963 45.0597 636.698 43.2012 634.049 42.1037C631.399 41.0063 628.484 40.7191 625.671 41.2786C622.858 41.8381 620.275 43.2191 618.247 45.247C616.219 47.2748 614.838 49.8585 614.279 52.6712C613.719 55.4839 614.006 58.3994 615.104 61.0489C616.201 63.6984 618.06 65.963 620.444 67.5563C622.829 69.1496 625.632 70 628.5 70C632.346 70 636.034 68.4723 638.753 65.753C641.472 63.0338 643 59.3456 643 55.5V55.5Z" fill="#FF7666"/>
<path fill-rule="evenodd" clip-rule="evenodd" d="M821.201 565.77V612.971C821.201 615.357 820.254 617.645 818.568 619.332C816.881 621.019 814.594 621.967 812.209 621.967H754.798C752.413 621.967 750.125 621.019 748.439 619.332C746.752 617.645 745.805 615.357 745.805 612.971V555.597C745.805 553.211 746.752 550.923 748.439 549.236C750.125 547.549 752.413 546.601 754.798 546.601H806.023" fill="#604FB2"/>
<path fill-rule="evenodd" clip-rule="evenodd" d="M830.271 553.225C830.271 550.597 829.492 548.029 828.032 545.844C826.573 543.659 824.499 541.956 822.072 540.951C819.645 539.945 816.975 539.682 814.399 540.195C811.823 540.707 809.456 541.973 807.599 543.831C805.742 545.689 804.477 548.056 803.964 550.633C803.452 553.21 803.715 555.881 804.72 558.309C805.725 560.736 807.427 562.811 809.611 564.271C811.795 565.731 814.363 566.51 816.99 566.51C820.512 566.51 823.89 565.11 826.381 562.619C828.871 560.127 830.271 556.748 830.271 553.225Z" fill="#FF7666"/>
<path fill-rule="evenodd" clip-rule="evenodd" d="M783.825 559.734C770.393 559.734 759.483 569.053 759.483 580.611C759.574 584.016 760.534 587.341 762.27 590.271C764.007 593.201 766.463 595.638 769.406 597.351L768.306 607.011L778.247 600.862C780.083 601.235 781.952 601.426 783.825 601.431C797.277 601.431 808.186 592.113 808.186 580.554C808.186 568.996 797.277 559.734 783.825 559.734Z" fill="white"/>
</svg>
